<?xml version="1.0" encoding="UTF-8" standalone="no"?>
<svg
   viewBox="0 0 48 48"
   width="48px"
   height="48px"
   version="1.1"
   id="svg7"
   sodipodi:docname="add-icon.svg"
   inkscape:version="1.3 (1:1.3+202307231459+0e150ed6c4)"
   xml:space="preserve"
   xmlns:inkscape="http://www.inkscape.org/namespaces/inkscape"
   xmlns:sodipodi="http://sodipodi.sourceforge.net/DTD/sodipodi-0.dtd"
   xmlns="http://www.w3.org/2000/svg"
   xmlns:svg="http://www.w3.org/2000/svg"><defs
     id="defs7" /><sodipodi:namedview
     id="namedview7"
     pagecolor="#ffffff"
     bordercolor="#000000"
     borderopacity="0.25"
     inkscape:showpageshadow="2"
     inkscape:pageopacity="0.0"
     inkscape:pagecheckerboard="0"
     inkscape:deskcolor="#d1d1d1"
     inkscape:zoom="17"
     inkscape:cx="24"
     inkscape:cy="23.941176"
     inkscape:window-width="1848"
     inkscape:window-height="1016"
     inkscape:window-x="72"
     inkscape:window-y="27"
     inkscape:window-maximized="1"
     inkscape:current-layer="svg7" /><linearGradient
     id="wRKXFJsqHCxLE9yyOYHkza"
     x1="9.858"
     x2="38.142"
     y1="9.858"
     y2="38.142"
     gradientUnits="userSpaceOnUse"><stop
       offset="0"
       stop-color="#f44f5a"
       id="stop1" /><stop
       offset=".443"
       stop-color="#ee3d4a"
       id="stop2" /><stop
       offset="1"
       stop-color="#e52030"
       id="stop3" /></linearGradient><path
     fill="url(#wRKXFJsqHCxLE9yyOYHkza)"
     d="M44,24c0,11.045-8.955,20-20,20S4,35.045,4,24S12.955,4,24,4S44,12.955,44,24z"
     id="path3"
     style="fill:#5c7728;fill-opacity:1" /><path
     d="m 33.992481,20.914224 -6.999625,0.01853 -0.01923,-7.00033 c -0.003,-1.104497 -0.900688,-1.997231 -2.005184,-1.994196 l -1.999691,0.0055 c -1.104497,0.003 -1.997231,0.900688 -1.994196,2.005185 l 0.01782,7.000334 -7.000331,0.01924 c -1.104496,0.003 -1.99723,0.900688 -1.994196,2.005185 l 0.0055,1.99969 c 0.003,1.104497 0.900688,1.997231 2.005185,1.994196 l 7.00033,-0.01923 0.01924,7.00033 c 0.003,1.104497 0.900688,1.997231 2.005185,1.994197 l 1.99969,-0.0055 c 1.104497,-0.003 1.997231,-0.900688 1.994196,-2.005185 l -0.01923,-7.00033 7.00033,-0.01923 c 1.104497,-0.003 1.997231,-0.900688 1.994196,-2.005185 l -0.0055,-1.99969 c -0.0023,-1.103791 -0.899979,-1.996526 -2.004476,-1.993491 z"
     opacity="0.05"
     id="path4" /><path
     d="m 33.993853,21.41344 -7.499546,0.02061 -0.02061,-7.499547 c -0.0023,-0.828726 -0.675872,-1.498629 -1.503889,-1.495647 l -1.99969,0.0055 c -0.828726,0.0023 -1.49863,0.675871 -1.495647,1.503888 l 0.01919,7.49955 -7.499546,0.02061 c -0.828726,0.0023 -1.498629,0.675872 -1.495647,1.503889 l 0.0055,1.999691 c 0.0023,0.828726 0.675871,1.498629 1.503888,1.495647 l 7.49955,-0.01919 0.02061,7.499546 c 0.0023,0.828726 0.675872,1.498629 1.503889,1.495647 l 1.99969,-0.0055 c 0.828726,-0.0023 1.49863,-0.675872 1.495647,-1.503889 l -0.01919,-7.49955 7.499546,-0.02061 c 0.828726,-0.0023 1.498629,-0.675872 1.495647,-1.503889 l -0.0055,-1.99969 c -0.0016,-0.829435 -0.675166,-1.499338 -1.503892,-1.497061 z"
     opacity="0.07"
     id="path5" /><path
     fill="#ffffff"
     d="m 22.970788,12.944271 1.999691,-0.0055 c 0.552955,-0.0015 1.001782,0.444848 1.002592,0.997098 l 0.05495,19.999733 c 0.0015,0.552955 -0.444848,1.001782 -0.997098,1.002592 l -1.999691,0.0055 c -0.552955,0.0015 -1.001782,-0.444847 -1.002592,-0.997098 L 21.97369,13.946864 c -0.0022,-0.552247 0.444848,-1.001782 0.997098,-1.002593 z"
     id="path6" /><path
     fill="#ffffff"
     d="m 34.997821,22.911167 0.0055,1.999691 c 0.0015,0.552955 -0.444848,1.001782 -0.997098,1.002592 l -19.999732,0.05495 c -0.552956,0.0015 -1.001783,-0.444848 -1.002593,-0.997098 l -0.0055,-1.99969 c -0.0015,-0.552956 0.444847,-1.001783 0.997098,-1.002593 l 19.999732,-0.05495 c 0.552247,-0.0022 1.001783,0.444848 1.002593,0.997098 z"
     id="path7" /></svg>
