<?xml version="1.0" encoding="UTF-8" standalone="no"?>
<svg
   version="1.0"
   width="48pt"
   height="48pt"
   viewBox="0 0 48 48"
   preserveAspectRatio="xMidYMid"
   id="svg1"
   sodipodi:docname="arrow.svg"
   inkscape:version="1.3 (1:1.3+202307231459+0e150ed6c4)"
   xmlns:inkscape="http://www.inkscape.org/namespaces/inkscape"
   xmlns:sodipodi="http://sodipodi.sourceforge.net/DTD/sodipodi-0.dtd"
   xmlns="http://www.w3.org/2000/svg"
   xmlns:svg="http://www.w3.org/2000/svg">
  <defs
     id="defs1" />
  <sodipodi:namedview
     id="namedview1"
     pagecolor="#ffffff"
     bordercolor="#000000"
     borderopacity="0.25"
     inkscape:showpageshadow="2"
     inkscape:pageopacity="0.0"
     inkscape:pagecheckerboard="0"
     inkscape:deskcolor="#d1d1d1"
     inkscape:document-units="pt"
     inkscape:zoom="7.65"
     inkscape:cx="32.54902"
     inkscape:cy="31.764706"
     inkscape:window-width="1848"
     inkscape:window-height="1016"
     inkscape:window-x="72"
     inkscape:window-y="27"
     inkscape:window-maximized="1"
     inkscape:current-layer="g1" />
  <metadata
     id="metadata1">&#10;Created by potrace 1.15, written by Peter Selinger 2001-2017&#10;</metadata>
  <g
     transform="matrix(0.00381419,0,0,-0.00372614,0.22632403,48.024953)"
     fill="#000000"
     stroke="none"
     id="g1">
    <path
       d="m 6040,12794 c -146,-25 -263,-61 -360,-109 -303,-151 -472,-493 -519,-1050 -6,-66 -11,-246 -11,-400 0,-263 8,-439 45,-950 8,-115 15,-1061.1227 15,-1117.1227 v -102 l -30,-16 c -38,-20 -152,-41 -310,-57 -261,-27 -2050,-11 -2595,24 -244,15 -804,15 -930,0 -320,-40 -469,-77 -662,-167 -251,-118 -445,-324 -544,-579 C 37,8008.8773 -7,8456 4,7990 c 6,-244 14,-396 47,-880 16,-224 15,-575 -1,-1265 -22,-952 0,-840.8773 61,-1061.8773 27,-98 96,-239 153,-315 164,-216 455,-361 843,-418 247,-36 307,-37 2215,-35 l 1876,2 9,-34 c 4,-18 7,-1317.1227 5,-1903.1227 -3,-1357 -1,-1395 92,-1585 81,-163 213,-293 386,-380 166,-83 283,-109 480,-109 119,-1 161,4 235,23 111,29 236,86 323,148 39,27 328,308 682,663 2047,2050 3917,3906 4095,4065 501,448 701,661 837,895 246,421 235,808 -36,1215 -111,167 -250,311 -2015,2080 -1005,1007 -2098,2105 -2431,2440 -332,336 -668,673 -745,750 -291,290 -502,427 -755,491 -55,14 -273,26 -320,18 z"
       id="path1"
       sodipodi:nodetypes="cccscsccccccccccccccccccccccccccccccc"
       style="fill:#5c7728;fill-opacity:1;fill-rule:nonzero" />
  </g>
</svg>
