<?xml version="1.0" encoding="UTF-8" standalone="no"?>
<svg
   viewBox="0 0 48 48"
   width="48px"
   height="48px"
   version="1.1"
   id="svg7"
   sodipodi:docname="edit-icon.svg"
   inkscape:version="1.3 (1:1.3+202307231459+0e150ed6c4)"
   xml:space="preserve"
   xmlns:inkscape="http://www.inkscape.org/namespaces/inkscape"
   xmlns:sodipodi="http://sodipodi.sourceforge.net/DTD/sodipodi-0.dtd"
   xmlns="http://www.w3.org/2000/svg"
   xmlns:svg="http://www.w3.org/2000/svg"><defs
     id="defs7" /><sodipodi:namedview
     id="namedview7"
     pagecolor="#ffffff"
     bordercolor="#000000"
     borderopacity="0.25"
     inkscape:showpageshadow="2"
     inkscape:pageopacity="0.0"
     inkscape:pagecheckerboard="0"
     inkscape:deskcolor="#d1d1d1"
     inkscape:zoom="17"
     inkscape:cx="24"
     inkscape:cy="24"
     inkscape:window-width="1848"
     inkscape:window-height="1016"
     inkscape:window-x="72"
     inkscape:window-y="27"
     inkscape:window-maximized="1"
     inkscape:current-layer="svg7" /><linearGradient
     id="wRKXFJsqHCxLE9yyOYHkza"
     x1="9.858"
     x2="38.142"
     y1="9.858"
     y2="38.142"
     gradientUnits="userSpaceOnUse"><stop
       offset="0"
       stop-color="#f44f5a"
       id="stop1" /><stop
       offset=".443"
       stop-color="#ee3d4a"
       id="stop2" /><stop
       offset="1"
       stop-color="#e52030"
       id="stop3" /></linearGradient><path
     fill="url(#wRKXFJsqHCxLE9yyOYHkza)"
     d="M44,24c0,11.045-8.955,20-20,20S4,35.045,4,24S12.955,4,24,4S44,12.955,44,24z"
     id="path3"
     style="fill:#5c7728;fill-opacity:1" /><path
     d="m 31.828219,12 c -0.51175,0 -1.023563,0.195438 -1.414063,0.585938 L 28.000094,15 l 5,5 2.414062,-2.414063 c 0.781,-0.781 0.781,-2.047124 0,-2.828124 L 33.242282,12.585938 C 32.851782,12.195438 32.339969,12 31.828219,12 Z M 26.000094,17 14.25986,28.740234 c 0,0 0.917765,-0.08223 1.259765,0.259766 0.342,0.342 0.06047,2.58 0.480469,3 0.42,0.42 2.643891,0.124359 2.962891,0.443359 0.319,0.319 0.296875,1.296875 0.296875,1.296875 L 31.000094,22 Z m -13,15 -0.943359,2.671875 A 1,1 0 0 0 12.000094,35 a 1,1 0 0 0 1,1 1,1 0 0 0 0.328125,-0.05664 1,1 0 0 0 0.0098,-0.0039 l 0.02539,-0.0078 a 1,1 0 0 0 0.0059,-0.0039 L 16.000094,35 l -1.5,-1.5 z"
     id="path1"
     style="fill:#f7f7f9;fill-opacity:1" /></svg>
